<svg width="1600" height="1000" viewBox="0 0 1600 1000" fill="none" xmlns="http://www.w3.org/2000/svg">
  <defs>
    <linearGradient id="bg" x1="50" y1="90" x2="1540" y2="900" gradientUnits="userSpaceOnUse">
      <stop stop-color="#061327"/>
      <stop offset="1" stop-color="#020617"/>
    </linearGradient>
    <linearGradient id="accent" x1="250" y1="260" x2="1340" y2="760" gradientUnits="userSpaceOnUse">
      <stop stop-color="#38BDF8"/>
      <stop offset="1" stop-color="#2563EB"/>
    </linearGradient>
    <filter id="blur" x="-35%" y="-35%" width="170%" height="170%">
      <feGaussianBlur stdDeviation="65"/>
    </filter>
  </defs>

  <rect width="1600" height="1000" fill="url(#bg)"/>
  <circle cx="1260" cy="220" r="210" fill="#1D4ED8" fill-opacity="0.3" filter="url(#blur)"/>
  <circle cx="300" cy="760" r="220" fill="#0EA5E9" fill-opacity="0.28" filter="url(#blur)"/>

  <rect x="190" y="170" width="1220" height="660" rx="34" fill="#0B1223" fill-opacity="0.7" stroke="#1E293B" stroke-width="2"/>

  <rect x="250" y="240" width="340" height="520" rx="22" fill="#0F172A" stroke="#334155"/>
  <rect x="630" y="240" width="340" height="520" rx="22" fill="#0F172A" stroke="#334155"/>
  <rect x="1010" y="240" width="340" height="520" rx="22" fill="#0F172A" stroke="#334155"/>

  <rect x="290" y="300" width="260" height="26" rx="13" fill="#1E293B"/>
  <rect x="670" y="300" width="260" height="26" rx="13" fill="#1E293B"/>
  <rect x="1050" y="300" width="260" height="26" rx="13" fill="#1E293B"/>

  <rect x="290" y="360" width="200" height="16" rx="8" fill="#1E293B"/>
  <rect x="670" y="360" width="200" height="16" rx="8" fill="#1E293B"/>
  <rect x="1050" y="360" width="200" height="16" rx="8" fill="#1E293B"/>

  <path d="M560 500H630" stroke="url(#accent)" stroke-width="8" stroke-linecap="round"/>
  <path d="M940 500H1010" stroke="url(#accent)" stroke-width="8" stroke-linecap="round"/>

  <circle cx="600" cy="500" r="12" fill="#38BDF8"/>
  <circle cx="970" cy="500" r="12" fill="#2563EB"/>

  <rect x="320" y="650" width="170" height="42" rx="12" fill="url(#accent)"/>
  <rect x="700" y="650" width="170" height="42" rx="12" fill="url(#accent)"/>
  <rect x="1080" y="650" width="170" height="42" rx="12" fill="url(#accent)"/>
</svg>
