<svg width="1600" height="1000" viewBox="0 0 1600 1000" fill="none" xmlns="http://www.w3.org/2000/svg">
  <defs>
    <linearGradient id="bg" x1="80" y1="40" x2="1500" y2="940" gradientUnits="userSpaceOnUse">
      <stop stop-color="#0B1223"/>
      <stop offset="1" stop-color="#020617"/>
    </linearGradient>
    <linearGradient id="line" x1="220" y1="240" x2="1380" y2="760" gradientUnits="userSpaceOnUse">
      <stop stop-color="#60A5FA"/>
      <stop offset="1" stop-color="#22D3EE"/>
    </linearGradient>
    <filter id="blur" x="-40%" y="-40%" width="180%" height="180%">
      <feGaussianBlur stdDeviation="80"/>
    </filter>
  </defs>

  <rect width="1600" height="1000" fill="url(#bg)"/>
  <circle cx="1280" cy="120" r="190" fill="#1D4ED8" fill-opacity="0.45" filter="url(#blur)"/>
  <circle cx="280" cy="820" r="220" fill="#0891B2" fill-opacity="0.35" filter="url(#blur)"/>

  <rect x="210" y="170" width="1180" height="660" rx="30" fill="#0F172A" fill-opacity="0.7" stroke="#1E293B" stroke-width="2"/>
  <rect x="260" y="230" width="1080" height="80" rx="14" fill="#111827" stroke="#334155"/>
  <circle cx="300" cy="270" r="8" fill="#60A5FA"/>
  <circle cx="332" cy="270" r="8" fill="#22D3EE"/>
  <circle cx="364" cy="270" r="8" fill="#38BDF8"/>

  <rect x="290" y="360" width="500" height="360" rx="20" fill="#0B1223" stroke="#334155"/>
  <rect x="830" y="360" width="480" height="56" rx="12" fill="#0B1223" stroke="#334155"/>
  <rect x="830" y="450" width="420" height="20" rx="10" fill="#1E293B"/>
  <rect x="830" y="490" width="360" height="20" rx="10" fill="#1E293B"/>
  <rect x="830" y="530" width="390" height="20" rx="10" fill="#1E293B"/>
  <rect x="830" y="590" width="220" height="52" rx="14" fill="url(#line)"/>

  <path d="M340 630L430 540L510 595L640 470L730 550" stroke="url(#line)" stroke-width="10" stroke-linecap="round" stroke-linejoin="round"/>
</svg>
