<svg width="1600" height="1000" viewBox="0 0 1600 1000" fill="none" xmlns="http://www.w3.org/2000/svg">
  <defs>
    <linearGradient id="bg" x1="140" y1="120" x2="1470" y2="940" gradientUnits="userSpaceOnUse">
      <stop stop-color="#071124"/>
      <stop offset="1" stop-color="#030712"/>
    </linearGradient>
    <linearGradient id="accent" x1="420" y1="290" x2="1210" y2="770" gradientUnits="userSpaceOnUse">
      <stop stop-color="#2563EB"/>
      <stop offset="1" stop-color="#06B6D4"/>
    </linearGradient>
    <filter id="glow" x="-40%" y="-40%" width="180%" height="180%">
      <feGaussianBlur stdDeviation="70"/>
    </filter>
  </defs>

  <rect width="1600" height="1000" fill="url(#bg)"/>
  <ellipse cx="1240" cy="180" rx="280" ry="180" fill="#1D4ED8" fill-opacity="0.35" filter="url(#glow)"/>
  <ellipse cx="290" cy="780" rx="260" ry="180" fill="#0891B2" fill-opacity="0.35" filter="url(#glow)"/>

  <rect x="210" y="160" width="1180" height="680" rx="34" fill="#0F172A" fill-opacity="0.72" stroke="#1E293B" stroke-width="2"/>

  <rect x="260" y="220" width="470" height="560" rx="24" fill="#0B1223" stroke="#334155"/>
  <rect x="760" y="220" width="580" height="250" rx="24" fill="#0B1223" stroke="#334155"/>
  <rect x="760" y="500" width="270" height="280" rx="24" fill="#0B1223" stroke="#334155"/>
  <rect x="1070" y="500" width="270" height="280" rx="24" fill="#0B1223" stroke="#334155"/>

  <rect x="300" y="270" width="390" height="26" rx="13" fill="#1E293B"/>
  <rect x="300" y="320" width="250" height="18" rx="9" fill="#1E293B"/>
  <rect x="300" y="360" width="360" height="18" rx="9" fill="#1E293B"/>

  <path d="M320 700L410 610L500 665L620 540L680 590" stroke="url(#accent)" stroke-width="10" stroke-linecap="round" stroke-linejoin="round"/>

  <circle cx="1050" cy="346" r="72" fill="url(#accent)" fill-opacity="0.9"/>
  <rect x="850" y="560" width="90" height="90" rx="20" fill="url(#accent)"/>
  <rect x="1160" y="560" width="90" height="90" rx="20" fill="url(#accent)"/>
</svg>
