<svg version="1.0" xmlns="http://www.w3.org/2000/svg"
 width="512.000000pt" height="512.000000pt" viewBox="0 0 512.000000 512.000000"
 preserveAspectRatio="xMidYMid meet">

<g transform="translate(0.000000,512.000000) scale(0.100000,-0.100000)"
fill="#000000" stroke="none">
<path d="M0 2560 l0 -2560 2560 0 2560 0 0 2560 0 2560 -2560 0 -2560 0 0
-2560z m2361 723 l57 -78 -169 -3 c-93 -1 -169 -5 -169 -9 0 -4 6 -14 14 -22
8 -9 62 -82 120 -163 l105 -148 -97 0 -97 0 -175 242 c-96 133 -176 246 -178
250 -2 4 117 8 265 8 l268 0 56 -77z m1019 71 c0 -5 -95 -145 -186 -272 -87
-123 -357 -517 -361 -529 -4 -11 8 -30 147 -218 199 -270 402 -549 406 -559 3
-8 -69 -10 -251 -8 l-255 3 -55 74 c-30 41 -55 76 -55 79 0 4 68 6 151 6 99 0
149 4 147 10 -6 18 -330 460 -337 460 -3 0 -46 -59 -94 -130 l-88 -130 -95 0
c-52 0 -94 2 -94 5 0 3 28 45 63 93 147 203 207 294 200 305 -4 7 -76 107
-160 224 -84 116 -153 214 -153 218 0 9 193 -4 199 -13 3 -5 53 -72 110 -150
l104 -141 40 57 c23 31 103 147 179 257 l138 200 -155 3 -154 3 56 79 56 80
249 0 c136 0 248 -3 248 -6z m-1510 -764 l0 -380 -70 0 -70 0 0 30 0 29 -47
-32 c-65 -43 -163 -50 -241 -17 -204 88 -227 401 -38 524 47 31 135 50 189 42
43 -7 117 -44 117 -58 0 -4 4 -8 8 -8 4 0 6 56 4 125 l-4 125 76 0 76 0 0
-380z m1880 0 l0 -380 -70 0 -70 0 0 380 0 380 70 0 70 0 0 -380z m-1404 170
c103 -50 168 -158 162 -269 l-3 -56 -217 -3 c-235 -3 -238 -3 -198 -54 54 -69
172 -77 236 -17 22 20 22 20 60 1 82 -43 82 -43 29 -90 -63 -55 -127 -76 -219
-70 -127 8 -213 70 -255 182 -78 208 71 415 290 403 43 -3 84 -12 115 -27z
m1050 -3 c102 -52 171 -172 162 -282 l-3 -40 -223 -5 -222 -5 25 -37 c48 -71
159 -88 229 -34 l34 25 51 -27 c28 -15 51 -30 51 -33 0 -17 -44 -58 -91 -83
-70 -38 -163 -46 -245 -20 -80 25 -156 99 -178 174 -64 216 79 409 294 397 44
-3 81 -12 116 -30z m-1176 -625 c0 -4 -29 -50 -65 -102 l-65 -95 165 -3 c91
-1 165 -5 165 -8 0 -3 -25 -42 -56 -85 l-55 -79 -266 0 -265 0 19 29 c10 16
68 101 128 189 l110 161 93 1 c50 0 92 -3 92 -8z m2634 -1778 c9 -24 7 -31 -4
-14 -9 13 -11 13 -20 0 -11 -17 -13 -10 -4 14 3 9 10 16 14 16 4 0 11 -7 14
-16z m31 -74 l0 -45 -45 0 -45 0 -1 40 c-1 22 0 43 2 46 2 4 23 6 46 5 l43 -1
0 -45z m-105 10 c-13 -9 -13 -11 0 -21 13 -9 12 -10 -3 -5 -10 3 -23 6 -28 6
-16 0 -10 18 9 23 30 8 37 7 22 -3z m159 -6 c6 -6 -1 -11 -29 -18 -19 -6 -22
-5 -10 3 13 10 13 12 0 22 -12 8 -9 9 10 3 14 -3 27 -8 29 -10z m-89 -64 c5 8
10 10 10 4 0 -5 -7 -19 -15 -30 -8 -10 -15 -14 -15 -7 0 6 -3 20 -6 30 -5 15
-4 16 5 3 10 -13 12 -13 21 0z"/>
<path d="M1524 2649 c-45 -13 -100 -78 -109 -128 -12 -71 24 -144 87 -177 40
-21 115 -18 154 6 62 39 91 138 60 211 -18 42 -40 63 -89 84 -40 17 -57 17
-103 4z"/>
<path d="M2170 2658 c-40 -11 -76 -41 -96 -80 l-15 -28 155 0 c144 0 155 1
149 18 -11 32 -67 82 -103 92 -41 11 -44 11 -90 -2z"/>
<path d="M3161 2625 c-21 -19 -41 -44 -44 -55 -5 -19 0 -20 144 -20 163 0 169
3 128 54 -31 39 -71 56 -133 56 -50 0 -60 -4 -95 -35z"/>
</g>
</svg>
