<svg width="324" height="210" viewBox="0 0 324 210" fill="none" xmlns="http://www.w3.org/2000/svg">
<path d="M69.3334 1.20004L64.8 2.00004L82.5334 26.6667C92.2667 40.2667 102.667 54.5334 105.467 58.2667L110.667 65.3334H123.467C133.467 65.3334 135.867 64.9334 134.933 63.6C127.2 53.7334 105.067 22.4 105.467 22C105.733 21.7334 115.467 21.3334 126.933 21.2C138.4 21.2 147.867 20.5334 147.867 19.8667C147.867 19.2 144.8 14.5334 141.067 9.33337L134.267 3.72827e-05L104 0.133371C87.4667 0.266704 71.8667 0.666704 69.3334 1.20004Z" fill="black"/>
<path d="M205.467 6.93337C202.667 10.8 199.2 15.6 198 17.6L195.6 21.2L215.733 21.6L236 22L224.4 38.6667C196.267 79.2 190 88 189.067 88C188.533 88 182 79.7334 174.533 69.4667C162.133 52.6667 160.533 50.9334 156.133 50.1334C149.6 49.0667 135.867 49.0667 135.867 50.1334C135.867 50.6667 144.533 63.2 155.2 78.1334C165.867 93.0667 174.933 106.133 175.333 107.333C176.133 109.333 169.467 119.733 149.733 147.6L140.933 160H153.733H166.4L177.467 143.733C183.6 134.8 189.2 127.333 189.867 127.2C191.067 126.8 218.8 163.2 230.133 180L234.4 186.4L229.467 187.2C226.8 187.6 218.133 188 210.267 188C202.267 188 195.867 188.4 195.867 188.8C195.867 189.333 198.933 193.733 202.667 198.8C208.533 206.8 210 208 213.6 208C216 208 228.133 208.4 240.667 208.933C253.2 209.333 266.267 209.333 269.6 208.8L275.867 207.867L270.667 200.267C267.733 196.133 252.267 174.667 236 152.667C219.867 130.667 205.867 111.333 205.067 109.6C202.8 105.6 196.133 116.133 261.6 21.0667L274.667 2.00004L270.933 1.20004C268.933 0.666705 254.533 0.266705 238.933 0.133371L210.667 3.79165e-05L205.467 6.93337Z" fill="black"/>
<path d="M58.1333 67.9999C58.5333 76.7999 58.5333 83.9999 58.1333 83.9999C57.6 83.9999 56 82.7999 54.5333 81.3333C53.2 79.9999 48.8 77.8666 44.8 76.6666C27.7333 71.7333 7.86667 82.3999 2 99.7333C-0.666667 107.467 -0.666667 120.533 2 128.267C8.8 148.4 32.2667 157.867 51.0667 148.133L58.5333 144.133V147.467C58.5333 150.533 58.8 150.667 67.8667 150.667H77.2V101.333V51.9999H67.2H57.3333L58.1333 67.9999ZM47.2 95.0666C60.9333 102.8 62.6667 120.933 50.6667 131.067C47.0667 134.133 45.0667 134.667 38.4 134.667C31.2 134.667 30.1333 134.267 25.2 129.867C15.8667 121.333 15.2 109.733 23.4667 99.8666C30.2667 91.8666 38.5333 90.1333 47.2 95.0666Z" fill="black"/>
<path d="M305.2 101.333V150.667H314.533H323.867V101.333V52H314.533H305.2V101.333Z" fill="black"/>
<path d="M114.933 76.1333C96.1333 79.5999 82.2666 97.8666 84.2666 116.667C86.5333 139.333 103.467 153.333 126.4 151.733C136.267 150.933 143.867 147.733 149.733 141.467C154.267 136.8 153.467 135.067 145.467 131.467C140.4 129.2 140.267 129.2 135.2 132.533C128.667 136.933 119.067 137.2 112 133.2C106.533 130.267 103.067 125.6 104.8 124C106.267 122.667 124.8 121.467 144.933 121.333H161.2V114.933C161.2 103.2 157.733 95.0666 149.467 86.6666C143.867 81.1999 140.267 78.7999 135.867 77.5999C127.333 75.4666 121.333 75.0666 114.933 76.1333ZM129.6 92.5333C135.467 94.9333 143.467 104 140.933 105.467C138.533 107.067 102.533 106.933 102.533 105.467C102.533 102.8 110 95.4666 115.2 93.1999C121.6 90.2666 124 90.1333 129.6 92.5333Z" fill="black"/>
<path d="M252.267 76.1334C240.133 78.4 230.267 86.2667 224.933 98C220.8 107.2 220.8 122.267 225.067 131.067C233.2 148 253.867 156 273.067 149.733C279.467 147.733 290.533 139.867 290.533 137.333C290.533 136.667 287.733 134.533 284.4 132.533L278.4 128.933L272 132.533C261.067 138.4 249.867 136.4 242.8 126.933L239.467 122.667L255.733 122.533C264.533 122.4 272.533 122.133 273.2 122C274 121.867 280 121.6 286.667 121.467L298.933 121.333L298.267 112.267C296.533 88.2667 275.467 71.7334 252.267 76.1334ZM267.467 93.4667C271.867 95.0667 278.533 101.067 278.533 103.467C278.533 105.867 273.733 106.667 257.467 106.667C239.2 106.667 237.6 105.2 246.267 97.0667C250.933 92.8 252.667 92 257.733 92C261.067 92 265.333 92.6667 267.467 93.4667Z" fill="black"/>
<path d="M82.8001 184C73.8668 197.2 66.5334 208.267 66.5334 208.667C66.5334 209.067 82.0001 209.333 100.933 209.333H135.333L142.4 199.2C146.267 193.6 149.2 188.933 148.933 188.667C148.4 188.267 121.467 186.8 112.8 186.667H106.4L114.533 174.667C118.933 168.133 122.533 162.133 122.533 161.333C122.533 160.533 118 160 110.8 160H99.0668L82.8001 184Z" fill="black"/>
</svg>
